<svg width="11" height="6" viewBox="0 0 11 6" fill="none" xmlns="http://www.w3.org/2000/svg">
<path d="M5.5 4.05733L1.97134 0.52866C1.8456 0.407221 1.6772 0.340025 1.5024 0.341544C1.32761 0.343063 1.1604 0.413175 1.03679 0.536781C0.913187 0.660386 0.843074 0.827595 0.841555 1.00239C0.840036 1.17719 0.907233 1.34559 1.02867 1.47133L5.02867 5.47133C5.15369 5.59631 5.32323 5.66652 5.5 5.66652C5.67678 5.66652 5.84632 5.59631 5.97134 5.47133L9.97134 1.47133C10.035 1.40983 10.0858 1.33627 10.1207 1.25493C10.1557 1.17359 10.1741 1.08611 10.1748 0.997594C10.1756 0.909074 10.1587 0.821288 10.1252 0.739357C10.0917 0.657426 10.0422 0.582992 9.9796 0.520397C9.91701 0.457801 9.84257 0.408299 9.76064 0.374779C9.67871 0.341258 9.59092 0.32439 9.50241 0.325159C9.41389 0.325929 9.32641 0.344319 9.24507 0.379259C9.16373 0.414198 9.09017 0.464986 9.02867 0.52866L5.5 4.05733Z" fill="#254E5F"/>
</svg>
