<svg width="16" height="16" viewBox="0 0 16 16" fill="none" xmlns="http://www.w3.org/2000/svg">
<path fill-rule="evenodd" clip-rule="evenodd" d="M13.8333 7.38401V8.00401C13.8326 9.29786 13.4136 10.5568 12.6389 11.5931C11.8642 12.6294 10.7753 13.3875 9.53455 13.7543C8.29379 14.1212 6.96769 14.0771 5.75402 13.6288C4.54034 13.1804 3.50413 12.3517 2.79991 11.2662C2.09569 10.1808 1.76121 8.89685 1.84634 7.6058C1.93147 6.31475 2.43166 5.0858 3.2723 4.10225C4.11295 3.1187 5.24901 2.43324 6.51105 2.1481C7.77309 1.86295 9.0935 1.99341 10.2753 2.52001C10.4369 2.59197 10.6203 2.59682 10.7854 2.5335C10.9505 2.47017 11.0837 2.34386 11.1557 2.18234C11.2276 2.02083 11.2325 1.83734 11.1692 1.67224C11.1058 1.50715 10.9795 1.37397 10.818 1.30201C9.37353 0.658389 7.7597 0.498943 6.21721 0.847449C4.67471 1.19596 3.28619 2.03374 2.25874 3.23586C1.23129 4.43798 0.619946 5.94002 0.515896 7.51797C0.411847 9.09592 0.820662 10.6652 1.68137 11.9919C2.54208 13.3185 3.80857 14.3313 5.29195 14.8794C6.77532 15.4274 8.39612 15.4812 9.9126 15.0329C11.4291 14.5845 12.76 13.6579 13.7068 12.3913C14.6537 11.1248 15.1658 9.58605 15.1667 8.00468V7.38468C15.1667 7.20786 15.0964 7.0383 14.9714 6.91327C14.8464 6.78825 14.6768 6.71801 14.5 6.71801C14.3232 6.71801 14.1536 6.78825 14.0286 6.91327C13.9036 7.0383 13.8333 7.20786 13.8333 7.38468V7.38401Z" fill="#8BC34A"/>
<path fill-rule="evenodd" clip-rule="evenodd" d="M7.83334 8.39467L6.30467 6.86667C6.24317 6.80299 6.16961 6.7522 6.08827 6.71727C6.00694 6.68233 5.91946 6.66394 5.83094 6.66317C5.74242 6.6624 5.65463 6.67926 5.5727 6.71279C5.49077 6.74631 5.41633 6.79581 5.35374 6.8584C5.29114 6.921 5.24164 6.99543 5.20812 7.07736C5.1746 7.15929 5.15773 7.24708 5.1585 7.3356C5.15927 7.42412 5.17766 7.5116 5.2126 7.59294C5.24754 7.67427 5.29833 7.74783 5.362 7.80933L7.362 9.80933C7.48702 9.93431 7.65656 10.0045 7.83334 10.0045C8.01011 10.0045 8.17965 9.93431 8.30467 9.80933L15.638 2.476C15.7594 2.35026 15.8266 2.18186 15.8251 2.00707C15.8236 1.83227 15.7535 1.66506 15.6299 1.54145C15.5063 1.41785 15.3391 1.34774 15.1643 1.34622C14.9895 1.3447 14.8211 1.41189 14.6953 1.53333L7.83334 8.39467Z" fill="#254E5F"/>
</svg>
