<svg width="13" height="10" viewBox="0 0 13 10" fill="none" xmlns="http://www.w3.org/2000/svg">
<path d="M1.19807 5.19533C1.13657 5.13166 1.06301 5.08087 0.981675 5.04593C0.900339 5.01099 0.812859 4.9926 0.72434 4.99183C0.63582 4.99106 0.548034 5.00793 0.466103 5.04145C0.384172 5.07497 0.309737 5.12447 0.247142 5.18707C0.184547 5.24966 0.135045 5.3241 0.101524 5.40603C0.0680037 5.48796 0.0511358 5.57575 0.0519051 5.66427C0.0526743 5.75278 0.0710651 5.84026 0.106004 5.9216C0.140944 6.00294 0.191732 6.0765 0.255405 6.138L3.58874 9.47133C3.71376 9.59631 3.8833 9.66652 4.06007 9.66652C4.23685 9.66652 4.40639 9.59631 4.53141 9.47133L11.8647 2.138C11.9284 2.0765 11.9792 2.00294 12.0141 1.9216C12.0491 1.84027 12.0675 1.75279 12.0682 1.66427C12.069 1.57575 12.0521 1.48796 12.0186 1.40603C11.9851 1.3241 11.9356 1.24966 11.873 1.18707C11.8104 1.12447 11.736 1.07497 11.654 1.04145C11.5721 1.00793 11.4843 0.991062 11.3958 0.991831C11.3073 0.9926 11.2198 1.01099 11.1385 1.04593C11.0571 1.08087 10.9836 1.13166 10.9221 1.19533L4.06007 8.05733L1.19807 5.19533Z" fill="#254E5F"/>
</svg>
