<svg width="15" height="16" viewBox="0 0 15 16" fill="none" xmlns="http://www.w3.org/2000/svg">
<path fill-rule="evenodd" clip-rule="evenodd" d="M7.01599 11.1253L4.36199 8.47133C4.23698 8.34624 4.16679 8.17661 4.16685 7.99976C4.16692 7.82291 4.23723 7.65334 4.36232 7.52833C4.48742 7.40332 4.65705 7.33313 4.83389 7.3332C5.01074 7.33326 5.18032 7.40357 5.30532 7.52866L6.83332 9.05733V1.33333C6.83332 1.15652 6.90356 0.986951 7.02859 0.861926C7.15361 0.736902 7.32318 0.666664 7.49999 0.666664C7.6768 0.666664 7.84637 0.736902 7.97139 0.861926C8.09642 0.986951 8.16666 1.15652 8.16666 1.33333V9.05733L9.69466 7.52866C9.81966 7.40357 9.98924 7.33326 10.1661 7.3332C10.3429 7.33313 10.5126 7.40332 10.6377 7.52833C10.7628 7.65334 10.8331 7.82291 10.8331 7.99976C10.8332 8.17661 10.763 8.34624 10.638 8.47133L7.98466 11.124C7.92234 11.19 7.84722 11.2425 7.76388 11.2785C7.68054 11.3144 7.59074 11.3329 7.49999 11.3329C7.40924 11.3329 7.31944 11.3144 7.2361 11.2785C7.15276 11.2425 7.07764 11.19 7.01532 11.124L7.01599 11.1253Z" fill="white"/>
<path fill-rule="evenodd" clip-rule="evenodd" d="M0.833328 11.3333V13.3333C0.833328 13.8638 1.04404 14.3725 1.41911 14.7475C1.79419 15.1226 2.3029 15.3333 2.83333 15.3333H12.1667C12.6971 15.3333 13.2058 15.1226 13.5809 14.7475C13.9559 14.3725 14.1667 13.8638 14.1667 13.3333V11.3333C14.1667 11.1565 14.0964 10.9869 13.9714 10.8619C13.8464 10.7369 13.6768 10.6667 13.5 10.6667C13.3232 10.6667 13.1536 10.7369 13.0286 10.8619C12.9036 10.9869 12.8333 11.1565 12.8333 11.3333V13.3333C12.8333 13.5101 12.7631 13.6797 12.6381 13.8047C12.513 13.9298 12.3435 14 12.1667 14H2.83333C2.65652 14 2.48695 13.9298 2.36192 13.8047C2.2369 13.6797 2.16666 13.5101 2.16666 13.3333V11.3333C2.16666 11.1565 2.09642 10.9869 1.9714 10.8619C1.84638 10.7369 1.67681 10.6667 1.49999 10.6667C1.32318 10.6667 1.15361 10.7369 1.02859 10.8619C0.903566 10.9869 0.833328 11.1565 0.833328 11.3333Z" fill="white"/>
</svg>
