<svg width="16" height="16" viewBox="0 0 16 16" fill="none" xmlns="http://www.w3.org/2000/svg">
<path fill-rule="evenodd" clip-rule="evenodd" d="M7.99999 15.3334C3.94999 15.3334 0.666656 12.05 0.666656 8.00002C0.666656 3.95002 3.94999 0.666687 7.99999 0.666687C12.05 0.666687 15.3333 3.95002 15.3333 8.00002C15.3333 12.05 12.05 15.3334 7.99999 15.3334ZM7.99999 14C8.78792 14 9.56814 13.8448 10.2961 13.5433C11.024 13.2418 11.6855 12.7998 12.2426 12.2427C12.7998 11.6855 13.2417 11.0241 13.5433 10.2961C13.8448 9.56817 14 8.78795 14 8.00002C14 7.21209 13.8448 6.43187 13.5433 5.70392C13.2417 4.97597 12.7998 4.31453 12.2426 3.75738C11.6855 3.20023 11.024 2.75827 10.2961 2.45674C9.56814 2.15521 8.78792 2.00002 7.99999 2.00002C6.40869 2.00002 4.88257 2.63216 3.75735 3.75738C2.63213 4.8826 1.99999 6.40872 1.99999 8.00002C1.99999 9.59132 2.63213 11.1174 3.75735 12.2427C4.88257 13.3679 6.40869 14 7.99999 14Z" fill="#C7C7CC"/>
<path fill-rule="evenodd" clip-rule="evenodd" d="M8.66665 4.00004C8.66665 3.82323 8.59641 3.65366 8.47138 3.52864C8.34636 3.40361 8.17679 3.33337 7.99998 3.33337C7.82317 3.33337 7.6536 3.40361 7.52858 3.52864C7.40355 3.65366 7.33331 3.82323 7.33331 4.00004V8.00004C7.33335 8.17684 7.40361 8.34638 7.52865 8.47137L9.52865 10.4714C9.65438 10.5928 9.82278 10.66 9.99758 10.6585C10.1724 10.657 10.3396 10.5869 10.4632 10.4633C10.5868 10.3396 10.6569 10.1724 10.6584 9.99764C10.6599 9.82284 10.5928 9.65444 10.4713 9.52871L8.66665 7.72404V4.00004Z" fill="#254E5F"/>
</svg>
