<svg width="16" height="16" viewBox="0 0 16 16" fill="none" xmlns="http://www.w3.org/2000/svg">
<path d="M7.33332 1.33332C7.33332 1.15651 7.40356 0.986943 7.52858 0.861919C7.65361 0.736894 7.82318 0.666656 7.99999 0.666656C8.1768 0.666656 8.34637 0.736894 8.47139 0.861919C8.59642 0.986943 8.66666 1.15651 8.66666 1.33332V3.99999C8.66666 4.1768 8.59642 4.34637 8.47139 4.47139C8.34637 4.59642 8.1768 4.66666 7.99999 4.66666C7.82318 4.66666 7.65361 4.59642 7.52858 4.47139C7.40356 4.34637 7.33332 4.1768 7.33332 3.99999V1.33332ZM7.33332 12C7.33332 11.8232 7.40356 11.6536 7.52858 11.5286C7.65361 11.4036 7.82318 11.3333 7.99999 11.3333C8.1768 11.3333 8.34637 11.4036 8.47139 11.5286C8.59642 11.6536 8.66666 11.8232 8.66666 12V14.6667C8.66666 14.8435 8.59642 15.013 8.47139 15.1381C8.34637 15.2631 8.1768 15.3333 7.99999 15.3333C7.82318 15.3333 7.65361 15.2631 7.52858 15.1381C7.40356 15.013 7.33332 14.8435 7.33332 14.6667V12ZM2.81532 3.75799C2.69388 3.63225 2.62669 3.46385 2.62821 3.28906C2.62973 3.11426 2.69984 2.94705 2.82344 2.82344C2.94705 2.69984 3.11426 2.62973 3.28906 2.62821C3.46385 2.62669 3.63225 2.69388 3.75799 2.81532L5.64466 4.70199C5.76609 4.82772 5.83329 4.99613 5.83177 5.17092C5.83025 5.34572 5.76014 5.51293 5.63654 5.63654C5.51293 5.76014 5.34572 5.83025 5.17092 5.83177C4.99613 5.83329 4.82772 5.76609 4.70199 5.64466L2.81532 3.75799ZM10.3553 11.298C10.2339 11.1723 10.1667 11.0039 10.1682 10.8291C10.1697 10.6543 10.2398 10.487 10.3634 10.3634C10.487 10.2398 10.6543 10.1697 10.8291 10.1682C11.0039 10.1667 11.1723 10.2339 11.298 10.3553L13.1847 12.242C13.3061 12.3677 13.3733 12.5361 13.3718 12.7109C13.3703 12.8857 13.3001 13.0529 13.1765 13.1765C13.0529 13.3001 12.8857 13.3703 12.7109 13.3718C12.5361 13.3733 12.3677 13.3061 12.242 13.1847L10.3553 11.298ZM1.33332 8.66666C1.15651 8.66666 0.986943 8.59642 0.861919 8.47139C0.736894 8.34637 0.666656 8.1768 0.666656 7.99999C0.666656 7.82318 0.736894 7.65361 0.861919 7.52858C0.986943 7.40356 1.15651 7.33332 1.33332 7.33332H3.99999C4.1768 7.33332 4.34637 7.40356 4.47139 7.52858C4.59642 7.65361 4.66666 7.82318 4.66666 7.99999C4.66666 8.1768 4.59642 8.34637 4.47139 8.47139C4.34637 8.59642 4.1768 8.66666 3.99999 8.66666H1.33332ZM12 8.66666C11.8232 8.66666 11.6536 8.59642 11.5286 8.47139C11.4036 8.34637 11.3333 8.1768 11.3333 7.99999C11.3333 7.82318 11.4036 7.65361 11.5286 7.52858C11.6536 7.40356 11.8232 7.33332 12 7.33332H14.6667C14.8435 7.33332 15.013 7.40356 15.1381 7.52858C15.2631 7.65361 15.3333 7.82318 15.3333 7.99999C15.3333 8.1768 15.2631 8.34637 15.1381 8.47139C15.013 8.59642 14.8435 8.66666 14.6667 8.66666H12ZM3.75799 13.1847C3.69649 13.2483 3.62293 13.2991 3.54159 13.3341C3.46026 13.369 3.37278 13.3874 3.28426 13.3882C3.19574 13.3889 3.10795 13.3721 3.02602 13.3385C2.94409 13.305 2.86965 13.2555 2.80706 13.1929C2.74446 13.1303 2.69496 13.0559 2.66144 12.974C2.62792 12.892 2.61105 12.8042 2.61182 12.7157C2.61259 12.6272 2.63098 12.5397 2.66592 12.4584C2.70086 12.3771 2.75165 12.3035 2.81532 12.242L4.70199 10.3553C4.76349 10.2916 4.83705 10.2409 4.91839 10.2059C4.99972 10.171 5.0872 10.1526 5.17572 10.1518C5.26424 10.1511 5.35203 10.1679 5.43396 10.2014C5.51589 10.235 5.59032 10.2845 5.65292 10.3471C5.71551 10.4097 5.76502 10.4841 5.79854 10.566C5.83206 10.648 5.84893 10.7357 5.84816 10.8243C5.84739 10.9128 5.829 11.0003 5.79406 11.0816C5.75912 11.1629 5.70833 11.2365 5.64466 11.298L3.75799 13.1847Z" fill="#EEAF41"/>
<path d="M10.8291 5.83176C11.0039 5.83328 11.1723 5.76609 11.298 5.64465L13.1847 3.75798C13.3061 3.63225 13.3733 3.46385 13.3718 3.28905C13.3703 3.11425 13.3001 2.94704 13.1765 2.82344C13.0529 2.69983 12.8857 2.62972 12.7109 2.6282C12.5361 2.62668 12.3677 2.69388 12.242 2.81532L10.3553 4.70198C10.2339 4.82772 10.1667 4.99612 10.1682 5.17092C10.1697 5.34571 10.2398 5.51292 10.3634 5.63653C10.4871 5.76013 10.6543 5.83025 10.8291 5.83176Z" fill="#254E5F"/>
</svg>
