<svg width="16" height="16" viewBox="0 0 16 16" fill="none" xmlns="http://www.w3.org/2000/svg">
<path fill-rule="evenodd" clip-rule="evenodd" d="M7.99999 15.3333C3.94999 15.3333 0.666656 12.05 0.666656 7.99999C0.666656 3.94999 3.94999 0.666656 7.99999 0.666656C12.05 0.666656 15.3333 3.94999 15.3333 7.99999C15.3333 12.05 12.05 15.3333 7.99999 15.3333ZM7.99999 14C8.78792 14 9.56814 13.8448 10.2961 13.5433C11.024 13.2417 11.6855 12.7998 12.2426 12.2426C12.7998 11.6855 13.2417 11.024 13.5433 10.2961C13.8448 9.56814 14 8.78792 14 7.99999C14 7.21206 13.8448 6.43184 13.5433 5.70389C13.2417 4.97594 12.7998 4.3145 12.2426 3.75735C11.6855 3.2002 11.024 2.75824 10.2961 2.45671C9.56814 2.15518 8.78792 1.99999 7.99999 1.99999C6.40869 1.99999 4.88257 2.63213 3.75735 3.75735C2.63213 4.88257 1.99999 6.40869 1.99999 7.99999C1.99999 9.59129 2.63213 11.1174 3.75735 12.2426C4.88257 13.3678 6.40869 14 7.99999 14Z" fill="#D12E34"/>
<path fill-rule="evenodd" clip-rule="evenodd" d="M7.33331 5.33332V7.99999C7.33331 8.1768 7.40355 8.34637 7.52858 8.47139C7.6536 8.59642 7.82317 8.66666 7.99998 8.66666C8.17679 8.66666 8.34636 8.59642 8.47138 8.47139C8.59641 8.34637 8.66665 8.1768 8.66665 7.99999V5.33332C8.66665 5.15651 8.59641 4.98694 8.47138 4.86192C8.34636 4.73689 8.17679 4.66666 7.99998 4.66666C7.82317 4.66666 7.6536 4.73689 7.52858 4.86192C7.40355 4.98694 7.33331 5.15651 7.33331 5.33332ZM7.52865 10.4713C7.59014 10.535 7.66371 10.5858 7.74504 10.6207C7.82638 10.6557 7.91386 10.6741 8.00238 10.6748C8.0909 10.6756 8.17868 10.6587 8.26061 10.6252C8.34255 10.5917 8.41698 10.5422 8.47958 10.4796C8.54217 10.417 8.59167 10.3426 8.62519 10.2606C8.65871 10.1787 8.67558 10.0909 8.67481 10.0024C8.67404 9.91387 8.65565 9.82639 8.62071 9.74505C8.58577 9.66372 8.53499 9.59015 8.47131 9.52866C8.34558 9.40722 8.17718 9.34002 8.00238 9.34154C7.82758 9.34306 7.66037 9.41317 7.53677 9.53678C7.41316 9.66038 7.34305 9.82759 7.34153 10.0024C7.34001 10.1772 7.40721 10.3456 7.52865 10.4713Z" fill="#254E5F"/>
</svg>
