<svg width="16" height="16" viewBox="0 0 16 16" fill="none" xmlns="http://www.w3.org/2000/svg">
<path fill-rule="evenodd" clip-rule="evenodd" d="M0.544668 9.75868C0.51481 9.83608 0.499661 9.91838 0.500002 10.0013V14C0.500002 14.1768 0.570239 14.3464 0.695264 14.4714C0.820288 14.5964 0.989858 14.6667 1.16667 14.6667C1.34348 14.6667 1.51305 14.5964 1.63807 14.4714C1.7631 14.3464 1.83334 14.1768 1.83334 14V11.5413L3.788 13.378C4.5841 14.1745 5.56899 14.7564 6.65078 15.0693C7.73257 15.3822 8.87601 15.416 9.97439 15.1675C11.0728 14.919 12.0903 14.3963 12.932 13.6482C13.7738 12.9001 14.4123 11.951 14.788 10.8893C14.8184 10.8066 14.8321 10.7185 14.8283 10.6304C14.8245 10.5423 14.8032 10.4558 14.7657 10.376C14.7283 10.2961 14.6753 10.2245 14.6099 10.1653C14.5446 10.1061 14.4681 10.0604 14.385 10.0309C14.3018 10.0015 14.2137 9.98879 14.1256 9.99365C14.0375 9.9985 13.9513 10.0208 13.8719 10.0592C13.7925 10.0976 13.7215 10.1514 13.663 10.2175C13.6046 10.2835 13.5598 10.3605 13.5313 10.444C13.2308 11.2933 12.72 12.0526 12.0467 12.6511C11.3733 13.2496 10.5593 13.6678 9.68067 13.8667C8.79849 14.0654 7.88032 14.037 7.01213 13.7841C6.14394 13.5312 5.35413 13.0621 4.71667 12.4207L2.85 10.6667H5.16667C5.34348 10.6667 5.51305 10.5964 5.63807 10.4714C5.7631 10.3464 5.83333 10.1768 5.83333 10C5.83333 9.8232 5.7631 9.65363 5.63807 9.52861C5.51305 9.40358 5.34348 9.33334 5.16667 9.33334H1.16667C1.03376 9.33321 0.903848 9.37281 0.793611 9.44706C0.683372 9.5213 0.597843 9.6268 0.548002 9.75001L0.544668 9.75868Z" fill="white"/>
<path fill-rule="evenodd" clip-rule="evenodd" d="M15.4487 6.24C15.4785 6.1626 15.4937 6.0803 15.4933 5.99734V1.99867C15.4933 1.82186 15.4231 1.65229 15.2981 1.52727C15.173 1.40224 15.0035 1.332 14.8267 1.332C14.6499 1.332 14.4803 1.40224 14.3553 1.52727C14.2302 1.65229 14.16 1.82186 14.16 1.99867V4.45734L12.2053 2.62067C11.4092 1.82416 10.4243 1.24229 9.34255 0.929363C8.26076 0.616435 7.11733 0.582645 6.01895 0.831146C4.92056 1.07965 3.90303 1.60234 3.06129 2.35045C2.21955 3.09856 1.58104 4.04771 1.20533 5.10934C1.17391 5.19236 1.15939 5.28081 1.16261 5.36952C1.16583 5.45823 1.18674 5.5454 1.2241 5.62592C1.26146 5.70644 1.31453 5.77869 1.38019 5.83843C1.44584 5.89816 1.52277 5.94419 1.60645 5.9738C1.69013 6.00341 1.77889 6.01601 1.8675 6.01086C1.95612 6.00571 2.04282 5.98292 2.12251 5.94382C2.2022 5.90472 2.27327 5.85009 2.33157 5.78315C2.38987 5.71622 2.43421 5.63831 2.462 5.554C2.76253 4.70471 3.2733 3.94539 3.94665 3.34688C4.62 2.74837 5.43399 2.33018 6.31267 2.13134C7.1949 1.93271 8.1131 1.96125 8.9813 2.21427C9.84949 2.46729 10.6393 2.93651 11.2767 3.578L13.1433 5.33134H10.8267C10.6499 5.33134 10.4803 5.40157 10.3553 5.5266C10.2302 5.65162 10.16 5.82119 10.16 5.998C10.16 6.17481 10.2302 6.34438 10.3553 6.46941C10.4803 6.59443 10.6499 6.66467 10.8267 6.66467H14.8267C14.9596 6.6648 15.0895 6.6252 15.1997 6.55096C15.31 6.47671 15.3955 6.37121 15.4453 6.248L15.4487 6.24Z" fill="white"/>
</svg>
