<svg width="10" height="10" viewBox="0 0 10 10" fill="none" xmlns="http://www.w3.org/2000/svg">
<path d="M6.00272 5L9.53139 8.52867C9.65283 8.6544 9.72002 8.8228 9.7185 8.9976C9.71698 9.1724 9.64687 9.33961 9.52326 9.46321C9.39966 9.58682 9.23245 9.65693 9.05765 9.65845C8.88286 9.65997 8.71445 9.59277 8.58872 9.47134L5.06005 5.94267L1.53138 9.47134C1.46989 9.53501 1.39632 9.5858 1.31499 9.62074C1.23365 9.65567 1.14617 9.67407 1.05765 9.67484C0.969133 9.6756 0.881347 9.65874 0.799416 9.62522C0.717485 9.5917 0.64305 9.54219 0.580455 9.4796C0.51786 9.417 0.468358 9.34257 0.434837 9.26064C0.401316 9.17871 0.384449 9.09092 0.385218 9.0024C0.385987 8.91388 0.404378 8.8264 0.439317 8.74507C0.474257 8.66373 0.525045 8.59017 0.588719 8.52867L4.11739 5L0.588719 1.47133C0.46728 1.3456 0.400083 1.1772 0.401602 1.0024C0.403121 0.827602 0.473234 0.660394 0.596839 0.536788C0.720445 0.413183 0.887653 0.34307 1.06245 0.341551C1.23725 0.340032 1.40565 0.407229 1.53138 0.528668L5.06005 4.05733L8.58872 0.528668C8.71445 0.407229 8.88286 0.340032 9.05765 0.341551C9.23245 0.34307 9.39966 0.413183 9.52326 0.536788C9.64687 0.660394 9.71698 0.827602 9.7185 1.0024C9.72002 1.1772 9.65283 1.3456 9.53139 1.47133L6.00272 5Z" fill="#D12E34"/>
</svg>
